<svg width="26" height="26" viewBox="0 0 26 26" fill="none" xmlns="http://www.w3.org/2000/svg">
<g clip-path="url(#clip0_386_13225)">
<path d="M23.2927 4.3335H20.9455V5.77794H23.1122V21.6668H2.88994V5.77794H5.05661V4.3335H2.70939C2.54056 4.33632 2.37394 4.37237 2.21905 4.4396C2.06415 4.50682 1.92402 4.6039 1.80665 4.72529C1.68929 4.84669 1.59698 4.99001 1.53501 5.14708C1.47305 5.30415 1.44263 5.47189 1.4455 5.64072V21.8041C1.44263 21.9729 1.47305 22.1406 1.53501 22.2977C1.59698 22.4548 1.68929 22.5981 1.80665 22.7195C1.92402 22.8409 2.06415 22.938 2.21905 23.0052C2.37394 23.0724 2.54056 23.1085 2.70939 23.1113H23.2927C23.4615 23.1085 23.6282 23.0724 23.7831 23.0052C23.938 22.938 24.0781 22.8409 24.1955 22.7195C24.3128 22.5981 24.4051 22.4548 24.4671 22.2977C24.5291 22.1406 24.5595 21.9729 24.5566 21.8041V5.64072C24.5595 5.47189 24.5291 5.30415 24.4671 5.14708C24.4051 4.99001 24.3128 4.84669 24.1955 4.72529C24.0781 4.6039 23.938 4.50682 23.7831 4.4396C23.6282 4.37237 23.4615 4.33632 23.2927 4.3335Z" fill="#B0B7C3"/>
<path d="M5.77734 10.1113H7.22179V11.5558H5.77734V10.1113Z" fill="#B0B7C3"/>
<path d="M10.1094 10.1113H11.5538V11.5558H10.1094V10.1113Z" fill="#B0B7C3"/>
<path d="M14.4453 10.1113H15.8898V11.5558H14.4453V10.1113Z" fill="#B0B7C3"/>
<path d="M18.7773 10.1113H20.2218V11.5558H18.7773V10.1113Z" fill="#B0B7C3"/>
<path d="M5.77734 13.7222H7.22179V15.1666H5.77734V13.7222Z" fill="#B0B7C3"/>
<path d="M10.1094 13.7222H11.5538V15.1666H10.1094V13.7222Z" fill="#B0B7C3"/>
<path d="M14.4453 13.7222H15.8898V15.1666H14.4453V13.7222Z" fill="#B0B7C3"/>
<path d="M18.7773 13.7222H20.2218V15.1666H18.7773V13.7222Z" fill="#B0B7C3"/>
<path d="M5.77734 17.3335H7.22179V18.7779H5.77734V17.3335Z" fill="#B0B7C3"/>
<path d="M10.1094 17.3335H11.5538V18.7779H10.1094V17.3335Z" fill="#B0B7C3"/>
<path d="M14.4453 17.3335H15.8898V18.7779H14.4453V17.3335Z" fill="#B0B7C3"/>
<path d="M18.7773 17.3335H20.2218V18.7779H18.7773V17.3335Z" fill="#B0B7C3"/>
<path d="M7.22222 7.22211C7.41377 7.22211 7.59747 7.14602 7.73291 7.01058C7.86835 6.87514 7.94444 6.69144 7.94444 6.49989V2.16656C7.94444 1.97501 7.86835 1.79131 7.73291 1.65587C7.59747 1.52043 7.41377 1.44434 7.22222 1.44434C7.03068 1.44434 6.84698 1.52043 6.71153 1.65587C6.57609 1.79131 6.5 1.97501 6.5 2.16656V6.49989C6.5 6.69144 6.57609 6.87514 6.71153 7.01058C6.84698 7.14602 7.03068 7.22211 7.22222 7.22211Z" fill="#B0B7C3"/>
<path d="M18.7769 7.22211C18.9685 7.22211 19.1522 7.14602 19.2876 7.01058C19.423 6.87514 19.4991 6.69144 19.4991 6.49989V2.16656C19.4991 1.97501 19.423 1.79131 19.2876 1.65587C19.1522 1.52043 18.9685 1.44434 18.7769 1.44434C18.5854 1.44434 18.4017 1.52043 18.2662 1.65587C18.1308 1.79131 18.0547 1.97501 18.0547 2.16656V6.49989C18.0547 6.69144 18.1308 6.87514 18.2662 7.01058C18.4017 7.14602 18.5854 7.22211 18.7769 7.22211Z" fill="#B0B7C3"/>
<path d="M9.39062 4.3335H16.6128V5.77794H9.39062V4.3335Z" fill="#B0B7C3"/>
</g>
<defs>
<clipPath id="clip0_386_13225">
<rect width="26" height="26" fill="white"/>
</clipPath>
</defs>
</svg>
