<svg width="129" height="55" viewBox="0 0 129 55" fill="none" xmlns="http://www.w3.org/2000/svg">
<path d="M11.4978 45.7628H18.2055V42.9893H11.4978C9.16016 42.9893 6.9183 41.5383 5.26537 39.759C3.61243 37.9798 2.57722 35.5955 2.57722 33.0793L2.57722 18.7832C2.57737 18.182 2.88437 17.6008 3.24867 17.145C3.61298 16.6893 4.11703 16.3893 4.6693 16.2994L12.7186 14.8554L36.9067 3.43295C37.6233 3.0834 38.5075 2.77615 39.2942 2.7735H60.5514C60.7526 2.7735 75.1273 2.32103 84.7999 10.2922L84.934 10.3933L96.3908 17.7724L118.151 23.8374C120.578 24.4979 122.709 26.063 124.165 28.2547C125.622 30.4463 126.459 33.3697 126.255 36.0555C126.093 38.1883 125.994 40.1962 125.611 42.2959C125.589 42.4041 125.048 42.9208 124.967 42.9893C124.886 43.0578 124.948 42.9918 124.845 42.9893H111.43V45.7628H124.845C125.577 45.7742 126.209 45.1719 126.778 44.6758C127.347 44.1796 127.736 43.4843 127.877 42.7111C128.288 40.53 128.592 38.3272 128.789 36.1118C129.04 32.7531 128.182 29.4067 126.366 26.6621C124.55 23.9175 121.893 21.9507 118.862 21.1081L97.2494 15.0287L86.3829 7.96727C75.9859 -0.624833 61.3765 0.0105477 60.7594 0.0105477H39.1873C38.032 0.0109226 36.8895 0.271629 35.8334 0.775894L11.7527 12.1406L4.24 13.4113C3.05285 13.6119 1.97201 14.2644 1.19402 15.2503C0.416046 16.2361 -0.00738525 17.4897 0.000717163 18.7832V33.0793C0.00782776 36.3565 1.22225 39.4968 3.3776 41.8115C5.53294 44.1261 8.45321 45.7628 11.4978 45.7628Z" fill="#B0B7C3"/>
<path d="M39.0543 42.9893L90.6367 42.9893V45.7628H39.0543V42.9893Z" fill="#B0B7C3"/>
<path d="M59.0846 1.28837L61.0195 17.9385L58.3572 18.297L56.4223 1.64684L59.0846 1.28837Z" fill="#B0B7C3"/>
<path d="M86.5449 20.6896C89.2279 20.6896 95.0234 20.3285 97.6797 17.3827L95.7613 15.3755C93.6685 17.6859 87.5778 17.9025 85.418 17.7726L35.0295 15.2599C34.6699 15.2362 34.3268 15.0895 34.0501 14.8412L25.1154 6.72559L23.3848 8.93498L32.3195 17.0505C33.0496 17.7082 33.9581 18.0933 34.9087 18.148L85.2838 20.6607L86.5449 20.6896Z" fill="#B0B7C3"/>
<path d="M28.6564 55.0001C31.0019 55.0001 33.2948 54.2514 35.245 52.8487C37.1953 51.446 38.7153 49.4523 39.6129 47.1198C40.5105 44.7872 40.7453 42.2205 40.2877 39.7442C39.8302 37.268 38.7007 34.9934 37.0421 33.2081C35.3836 31.4229 33.2704 30.2071 30.97 29.7145C28.6695 29.222 26.285 29.4748 24.118 30.441C21.951 31.4071 20.0988 33.0433 18.7957 35.1426C17.4926 37.2418 16.7971 39.7099 16.7971 42.2347C16.8042 45.6179 18.0559 48.8604 20.2784 51.2527C22.5009 53.6451 25.5133 54.9924 28.6564 55.0001ZM28.6564 32.3573C30.4712 32.3573 32.2453 32.9366 33.7544 34.022C35.2634 35.1073 36.4395 36.6499 37.134 38.4548C37.8286 40.2596 38.0103 42.2456 37.6562 44.1616C37.3021 46.0776 36.4282 47.8376 35.1449 49.219C33.8616 50.6003 32.2265 51.541 30.4465 51.9222C28.6665 52.3033 26.8215 52.1077 25.1448 51.3601C23.4681 50.6125 22.0349 49.3465 21.0266 47.7222C20.0183 46.0979 19.4802 44.1882 19.4802 42.2347C19.4837 39.6162 20.4516 37.1061 22.1717 35.2546C23.8918 33.403 26.2238 32.3612 28.6564 32.3573Z" fill="#B0B7C3"/>
<path d="M28.658 49.7C30.0297 49.7 31.3707 49.2622 32.5113 48.4418C33.6519 47.6215 34.5408 46.4555 35.0658 45.0913C35.5908 43.7271 35.7281 42.226 35.4605 40.7778C35.1929 39.3296 34.5323 37.9993 33.5623 36.9552C32.5923 35.9111 31.3565 35.2001 30.0111 34.912C28.6656 34.6239 27.2711 34.7718 26.0037 35.3369C24.7364 35.9019 23.6532 36.8588 22.8911 38.0866C22.1289 39.3143 21.7222 40.7577 21.7222 42.2343C21.7222 44.2143 22.4529 46.1133 23.7536 47.5134C25.0543 48.9135 26.8185 49.7 28.658 49.7ZM28.658 37.6567C29.4991 37.6567 30.3213 37.9251 31.0206 38.4281C31.72 38.9311 32.2651 39.6461 32.5869 40.4825C32.9088 41.319 32.993 42.2394 32.8289 43.1274C32.6648 44.0153 32.2598 44.831 31.6651 45.4712C31.0703 46.1114 30.3126 46.5474 29.4876 46.724C28.6627 46.9006 27.8076 46.81 27.0305 46.4635C26.2534 46.117 25.5893 45.5303 25.122 44.7775C24.6547 44.0247 24.4053 43.1397 24.4053 42.2343C24.4053 41.0202 24.8533 39.8559 25.6508 38.9974C26.4484 38.1389 27.5301 37.6567 28.658 37.6567Z" fill="#B0B7C3"/>
<path d="M101.033 49.7C102.405 49.7 103.746 49.2622 104.886 48.4418C106.027 47.6215 106.916 46.4555 107.441 45.0913C107.966 43.7271 108.103 42.226 107.835 40.7778C107.568 39.3296 106.907 37.9993 105.937 36.9552C104.967 35.9111 103.731 35.2001 102.386 34.912C101.041 34.6239 99.6461 34.7718 98.3787 35.3369C97.1114 35.9019 96.0282 36.8588 95.266 38.0866C94.5039 39.3143 94.0972 40.7577 94.0972 42.2343C94.0972 44.2143 94.8279 46.1133 96.1286 47.5134C97.4293 48.9135 99.1935 49.7 101.033 49.7ZM101.033 37.6567C101.874 37.6567 102.696 37.9251 103.396 38.4281C104.095 38.9311 104.64 39.6461 104.962 40.4825C105.284 41.319 105.368 42.2394 105.204 43.1274C105.04 44.0153 104.635 44.831 104.04 45.4712C103.445 46.1114 102.688 46.5474 101.863 46.724C101.038 46.9006 100.183 46.81 99.4055 46.4635C98.6284 46.117 97.9643 45.5303 97.497 44.7775C97.0297 44.0247 96.7802 43.1397 96.7802 42.2343C96.7802 41.0202 97.2283 39.8559 98.0258 38.9974C98.8234 38.1389 99.9051 37.6567 101.033 37.6567Z" fill="#B0B7C3"/>
<path d="M101.031 55.0001C103.377 55.0001 105.67 54.2514 107.62 52.8487C109.57 51.446 111.09 49.4523 111.988 47.1198C112.885 44.7872 113.12 42.2205 112.663 39.7442C112.205 37.268 111.076 34.9934 109.417 33.2081C107.759 31.4229 105.645 30.2071 103.345 29.7145C101.045 29.222 98.66 29.4748 96.493 30.441C94.326 31.4071 92.4738 33.0433 91.1707 35.1426C89.8676 37.2418 89.1721 39.7099 89.1721 42.2347C89.1756 45.6191 90.4262 48.8638 92.6495 51.2569C94.8728 53.6501 97.8872 54.9962 101.031 55.0001ZM101.031 32.3573C102.846 32.3573 104.62 32.9366 106.129 34.022C107.638 35.1073 108.815 36.6499 109.509 38.4548C110.204 40.2596 110.385 42.2456 110.031 44.1616C109.677 46.0776 108.803 47.8376 107.52 49.219C106.237 50.6003 104.602 51.541 102.822 51.9222C101.042 52.3033 99.1965 52.1077 97.5198 51.3601C95.8431 50.6125 94.4099 49.3465 93.4016 47.7222C92.3933 46.0979 91.8552 44.1882 91.8552 42.2347C91.8552 39.615 92.8219 37.1027 94.5428 35.2503C96.2637 33.398 98.5977 32.3573 101.031 32.3573Z" fill="#B0B7C3"/>
<path d="M71.6248 29.8012H76.7092C77.065 29.8012 77.4063 29.649 77.6579 29.3782C77.9094 29.1074 78.0508 28.7401 78.0508 28.3571C78.0508 27.9742 77.9094 27.6069 77.6579 27.336C77.4063 27.0652 77.065 26.9131 76.7092 26.9131H71.6248C71.269 26.9131 70.9277 27.0652 70.6762 27.336C70.4246 27.6069 70.2832 27.9742 70.2832 28.3571C70.2832 28.7401 70.4246 29.1074 70.6762 29.3782C70.9277 29.649 71.269 29.8012 71.6248 29.8012Z" fill="#B0B7C3"/>
<path d="M49.4512 29.8012H54.5491C54.9049 29.8012 55.2461 29.649 55.4977 29.3782C55.7493 29.1074 55.8906 28.7401 55.8906 28.3571C55.8906 27.9742 55.7493 27.6069 55.4977 27.336C55.2461 27.0652 54.9049 26.9131 54.5491 26.9131H49.4512C49.0954 26.9131 48.7542 27.0652 48.5026 27.336C48.251 27.6069 48.1097 27.9742 48.1097 28.3571C48.1097 28.7401 48.251 29.1074 48.5026 29.3782C48.7542 29.649 49.0954 29.8012 49.4512 29.8012Z" fill="#B0B7C3"/>
<path d="M127.221 36.2415L127.664 33.3534L123.733 32.6314C123.325 32.5608 122.955 32.33 122.695 31.9834C122.435 31.6368 122.303 31.199 122.325 30.7542L122.687 23.7072L120.004 23.5483L119.655 30.5953C119.584 31.7556 119.917 32.9028 120.589 33.8131C121.262 34.7235 122.225 35.3318 123.291 35.5195L127.221 36.2415Z" fill="#B0B7C3"/>
<path d="M0.00154877 33.2819H6.06756C6.84677 33.2819 7.41742 32.6593 7.9684 32.0662C8.51938 31.4731 9.01953 30.6687 9.01953 29.83V22.8813C9.01953 22.0426 8.51938 20.9666 7.9684 20.3735C7.41742 19.7805 6.67014 19.4473 5.89094 19.4473H0.00154877V33.2819ZM5.79875 22.1879C6.4429 22.1879 6.43965 22.8097 6.4429 22.8813V29.83C6.43965 29.9016 6.49002 29.7643 6.4429 29.8151C6.39579 29.8658 6.4429 30.5084 5.79875 30.5084H2.57796V22.1879H5.79875Z" fill="#B0B7C3"/>
</svg>
