<svg width="26" height="26" viewBox="0 0 26 26" fill="none" xmlns="http://www.w3.org/2000/svg">
<path fill-rule="evenodd" clip-rule="evenodd" d="M7.85403 10.8332C7.85403 7.99121 10.1579 5.68734 12.9999 5.68734C15.8418 5.68734 18.1457 7.99121 18.1457 10.8332C18.1457 13.6751 15.8418 15.979 12.9999 15.979C10.1579 15.979 7.85403 13.6751 7.85403 10.8332ZM12.9999 7.31234C11.0554 7.31234 9.47903 8.88867 9.47903 10.8332C9.47903 12.7777 11.0554 14.354 12.9999 14.354C14.9444 14.354 16.5207 12.7777 16.5207 10.8332C16.5207 8.88867 14.9444 7.31234 12.9999 7.31234Z" fill="#B0B7C3"/>
<path fill-rule="evenodd" clip-rule="evenodd" d="M3.81792 9.59476C4.20178 4.93793 8.09328 1.354 12.7659 1.354H13.2338C17.9065 1.354 21.7979 4.93793 22.1818 9.59476C22.388 12.0963 21.6153 14.5803 20.0264 16.5235L14.8339 22.8737C13.886 24.033 12.1137 24.033 11.1658 22.8737L5.97332 16.5235C4.38445 14.5803 3.61172 12.0963 3.81792 9.59476ZM12.7659 2.979C8.93898 2.979 5.75181 5.91427 5.43743 9.72825C5.26582 11.8102 5.90893 13.8776 7.23131 15.4948L12.4238 21.8451C12.7215 22.2092 13.2782 22.2092 13.5759 21.8451L18.7684 15.4948C20.0908 13.8776 20.7339 11.8102 20.5623 9.72825C20.2479 5.91427 17.0607 2.979 13.2338 2.979H12.7659Z" fill="#B0B7C3"/>
</svg>
